/* XPM */
static char *result[] = {
/* columns rows colors chars-per-pixel */
"35 40 9 1 ",
"  c #302639",
". c #563A3F",
"X c #79584F",
"o c #505060",
"O c #94785C",
"+ c #707888",
"@ c #949EA8",
"# c #D5D5D5",
"$ c None",
/* pixels */
"$$$$$$+++++++++++++++++++++++$$$$$$",
"$$$$$o@@@@@@@@@@@@@@@@@@@@@@@o$$$$$",
"$$$$$o@@@@@@@@@@@@@@@@@@@@@@@o$$$$$",
"$$$$o@@oo+++++++ooo+++++++o@@@o$$$$",
"$$$$o@@..X..XXXX...XXXXXXX.@@@o$$$$",
"$$$$o@@XXOXXOOOOXXXOOOXXOOX@@@o$$$$",
"$$$$o@@XXOXOOOOOXXXOOOXXOOO@@@o$$$$",
"$$$$o@@XXOXOOOOOXXXOOOXXOOO@@@o$$$$",
"$$$$o@@XXOXOOOOOXXXOOOOOOOO@@@o$$$$",
"$$$$o@@XXOOOOOOOXXXOOOOOOOO@@@o$$$$",
"$$$$o@+XXOOOOOOOXXXOOOOOOOO++@o$$$$",
"$$oo@@.XXOOOOOOOXXXOOOOOOOOXX@@o$$$",
"$$oo@@.XXOOOOOOOXXXOOOOOOOOXX@@o$$$",
"$$oo@@XOOOOOOOOOXXXOOOOOOOOOO@@o$$$",
"$$oo@@XOOOOOOOOOXXXOOOOOOOOOO@@o$$$",
"$$oo@@XOOOOOOOOOXXXOOOOOXOOOO@@o$$$",
"$$oo@@XOOOOOOOOOXXXOOOOOXOOOO@@o$$$",
"$$oo@@XOOOOOOOOOXXXOOOOOXOOOO@@o$$$",
"$$oo@@XOOOO#XX@OXXXO#X@@OOOOO@@o$$$",
"$$oo@@XOOOOX@@@OXXXO@@XXOOOOO@@o$$$",
"$$oo@@XOOOOOXXXOXXXOXXOOOOOOO@@o$$$",
"$$oo@@XOOOOOOOOOXXXOOOOOOOOOO@@o$$$",
"$$oo@@XOOOOOOOOOXXXOOOOOOOOOO@@o$$$",
"$$oo@@XOOOOOOOOOXXXOOOOOOOOOO@@o$$$",
"$$oo@@XOOOOOOOOOXXXOOOOOOOOOO@@o$$$",
"$$oo@+XOOOOOOOOXXXXXOOOOOOOOO+@o$$$",
"$o@@@.XOOOOXOOOX...XOOOOOXOOOX@@oo$",
"$o@@@.XOOOOXOOOX...XOOOOOXOOOX@@oo$",
"$o@@@XOOOXOXOOOX...XOOOOOXOOOX@@oo$",
"$o@@@XXXX.X.XXX.....XXXXX.XXXX@@oo$",
"$o@@@@@@@@@@@@@@@@@@@@@@@@@@@@@@oo$",
"$o+++@@@@@@@@@@@@@@@@@@@@@@@@@++oo$",
"$o+++@@@@@@@@@@@@@@@@@@@@@@@@@++oo$",
"$o++++++++++++++++++++++++++++++oo$",
"$ ooo+++++++++++++++++++++++++oo  $",
"$   ooooooooooooooooooooooooooo   $",
"$$$$                           $$$$",
"$$$$                           $$$$",
"$$$$$$$$$$$$$$$$$$$$$$$$$$$$$$$$$$$",
"$$$$$$$$$$$$$$$$$$$$$$$$$$$$$$$$$$$"
};
