/* XPM */
static char *result[] = {
/* columns rows colors chars-per-pixel */
"44 50 9 1 ",
"  c #302639",
". c #563A3F",
"X c #79584F",
"o c #505060",
"O c #94785C",
"+ c #707888",
"@ c #949EA8",
"# c #D5D5D5",
"$ c None",
/* pixels */
"$$$$$$$$++++++++++++++++++++++++++++$$$$$$$$",
"$$$$$$oo@@@@@@@@@@@@@@@@@@@@@@@@@@@@oo$$$$$$",
"$$$$$$oo@@@@@@@@@@@@@@@@@@@@@@@@@@@@oo$$$$$$",
"$$$$$$oo@@@@@@@@@@@@@@@@@@@@@@@@@@@@oo$$$$$$",
"$$$$$o@@@oo+++++++++oooo+++++++++o@@@@o$$$$$",
"$$$$$o@@@..XX..XXXXX....XXXXXXXXX.@@@@o$$$$$",
"$$$$$o@@@XXOOXXOOOOOXXXXOOOOXXOOOX@@@@o$$$$$",
"$$$$$o@@@XXOOXXOOOOOXXXXOOOOXXOOOX@@@@o$$$$$",
"$$$$$o@@@XXOOXOOOOOOXXXXOOOOXXOOOO@@@@o$$$$$",
"$$$$$o@@@XXOOXOOOOOOXXXXOOOOXXOOOO@@@@o$$$$$",
"$$$$$o@@@XXOOXOOOOOOXXXXOOOOOOOOOO@@@@o$$$$$",
"$$$$$o@@@XXOOOOOOOOOXXXXOOOOOOOOOO@@@@o$$$$$",
"$$$$$o@@@XXOOOOOOOOOXXXXOOOOOOOOOO@@@@o$$$$$",
"$$$$$o@@+XXOOOOOOOOOXXXXOOOOOOOOOO++@@o$$$$$",
"$$$oo@@@.XXOOOOOOOOOXXXXOOOOOOOOOOXX@@@o$$$$",
"$$$oo@@@.XXOOOOOOOOOXXXXOOOOOOOOOOXX@@@o$$$$",
"$$$oo@@@XOOOOOOOOOOOXXXXOOOOOOOOOOOO@@@o$$$$",
"$$$oo@@@XOOOOOOOOOOOXXXXOOOOOOOOOOOO@@@o$$$$",
"$$$oo@@@XOOOOOOOOOOOXXXXOOOOOOOOOOOO@@@o$$$$",
"$$$oo@@@XOOOOOOOOOOOXXXXOOOOOOXOOOOO@@@o$$$$",
"$$$oo@@@XOOOOOOOOOOOXXXXOOOOOOXOOOOO@@@o$$$$",
"$$$oo@@@XOOOOOOOOOOOXXXXOOOOOOXOOOOO@@@o$$$$",
"$$$oo@@@XOOOOOOOOOOOXXXXOOOOOOXOOOOO@@@o$$$$",
"$$$oo@@@XOOOOO#XXX@OXXXXO#XX@@OOOOOO@@@o$$$$",
"$$$oo@@@XOOOOOX@@@@OXXXXO@@@XXOOOOOO@@@o$$$$",
"$$$oo@@@XOOOOOOXXXXOXXXXOXXXOOOOOOOO@@@o$$$$",
"$$$oo@@@XOOOOOOOOOOOXXXXOOOOOOOOOOOO@@@o$$$$",
"$$$oo@@@XOOOOOOOOOOOXXXXOOOOOOOOOOOO@@@o$$$$",
"$$$oo@@@XOOOOOOOOOOOXXXXOOOOOOOOOOOO@@@o$$$$",
"$$$oo@@@XOOOOOOOOOOOXXXXOOOOOOOOOOOO@@@o$$$$",
"$$$oo@@@XOOOOOOOOOOOXXXXOOOOOOOOOOOO@@@o$$$$",
"$$$oo@++XOOOOOOOOOOXXXXXXOOOOOOOOOOO++@o$$$$",
"$$$oo@++XOOOOOOOOOOXXXXXXOOOOOOOOOOO++@o$$$$",
"$oo@@@..XOOOOOXOOOOX....XOOOOOOXXOOOXX@@ooo$",
"$oo@@@..XOOOOOXOOOOX....XOOOOOOXXOOOXX@@ooo$",
"$oo@@@XXOOOXXOXOOOOX....XOOOOOOXXOOOXX@@ooo$",
"$oo@@@XXXXX..X.XXXX......XXXXXX..XXXXX@@ooo$",
"$oo@@@XXXXX..X.XXXX......XXXXXX..XXXXX@@ooo$",
"$oo@@@@@@@@@@@@@@@@@@@@@@@@@@@@@@@@@@@@@ooo$",
"$oo+++@@@@@@@@@@@@@@@@@@@@@@@@@@@@@@@@++ooo$",
"$oo+++@@@@@@@@@@@@@@@@@@@@@@@@@@@@@@@@++ooo$",
"$oo+++++++++++++++++++++++++++++++++++++ooo$",
"$oo+++++++++++++++++++++++++++++++++++++ooo$",
"$  ooo++++++++++++++++++++++++++++++++oo   $",
"$    oooooooooooooooooooooooooooooooooo    $",
"$$$$$                                  $$$$$",
"$$$$$                                  $$$$$",
"$$$$$                                  $$$$$",
"$$$$$$$$$$$$$$$$$$$$$$$$$$$$$$$$$$$$$$$$$$$$",
"$$$$$$$$$$$$$$$$$$$$$$$$$$$$$$$$$$$$$$$$$$$$"
};
